<mxfile host="app.diagrams.net" modified="2023-10-08T10:04:00.050Z" agent="Mozilla/5.0 (Windows NT 10.0; Win64; x64) AppleWebKit/537.36 (KHTML, like Gecko) Chrome/117.0.0.0 Safari/537.36" etag="DsGOZwOvioc3unelgEbg" version="21.7.4" type="github">
  <diagram name="Page-1" id="c7488fd3-1785-93aa-aadb-54a6760d102a">
    <mxGraphModel dx="758" dy="416" grid="1" gridSize="10" guides="1" tooltips="1" connect="1" arrows="1" fold="1" page="1" pageScale="1" pageWidth="1100" pageHeight="850" background="none" math="0" shadow="0">
      <root>
        <mxCell id="0" />
        <mxCell id="1" parent="0" />
        <mxCell id="2b4e8129b02d487f-1" value="Swimlane As Is" style="swimlane;html=1;childLayout=stackLayout;horizontal=1;startSize=20;horizontalStack=0;rounded=0;shadow=0;labelBackgroundColor=none;strokeWidth=1;fontFamily=Verdana;fontSize=8;align=center;" parent="1" vertex="1">
          <mxGeometry x="220" y="70" width="770" height="510" as="geometry" />
        </mxCell>
        <mxCell id="2b4e8129b02d487f-2" value="Manajemen&lt;br style=&quot;font-size: 9px;&quot;&gt;Operasional" style="swimlane;html=1;startSize=30;horizontal=0;fontSize=9;" parent="2b4e8129b02d487f-1" vertex="1">
          <mxGeometry y="20" width="770" height="70" as="geometry" />
        </mxCell>
        <mxCell id="2b4e8129b02d487f-6" value="Perencanaan persediaan / Model Smart Home" style="rounded=1;whiteSpace=wrap;html=1;shadow=0;labelBackgroundColor=none;strokeWidth=1;fontFamily=Verdana;fontSize=7;align=center;" parent="2b4e8129b02d487f-2" vertex="1">
          <mxGeometry x="36.5" y="15.5" width="97" height="37" as="geometry" />
        </mxCell>
        <mxCell id="EXiJSsDwTDuwI2L_ceVk-18" value="Pengecekan Produk / Test QC" style="rounded=1;whiteSpace=wrap;html=1;shadow=0;labelBackgroundColor=none;strokeWidth=1;fontFamily=Verdana;fontSize=7;align=center;" parent="2b4e8129b02d487f-2" vertex="1">
          <mxGeometry x="260" y="16.5" width="81" height="37" as="geometry" />
        </mxCell>
        <mxCell id="EXiJSsDwTDuwI2L_ceVk-45" value="Menyiapkan pesanan Pelanggan" style="rounded=1;whiteSpace=wrap;html=1;shadow=0;labelBackgroundColor=none;strokeWidth=1;fontFamily=Verdana;fontSize=7;align=center;" parent="2b4e8129b02d487f-2" vertex="1">
          <mxGeometry x="460" y="15.5" width="90" height="37" as="geometry" />
        </mxCell>
        <mxCell id="2b4e8129b02d487f-3" value="Ruang&lt;br style=&quot;font-size: 9px;&quot;&gt;Produksi" style="swimlane;html=1;startSize=30;horizontal=0;fontSize=9;" parent="2b4e8129b02d487f-1" vertex="1">
          <mxGeometry y="90" width="770" height="70" as="geometry" />
        </mxCell>
        <mxCell id="EXiJSsDwTDuwI2L_ceVk-14" value="Produksi Pembuatan Perangkat Smart Home" style="rounded=1;whiteSpace=wrap;html=1;shadow=0;labelBackgroundColor=none;strokeWidth=1;fontFamily=Verdana;fontSize=7;align=center;" parent="2b4e8129b02d487f-3" vertex="1">
          <mxGeometry x="148" y="16.5" width="80" height="37" as="geometry" />
        </mxCell>
        <mxCell id="2b4e8129b02d487f-4" value="Logistik dan&lt;br style=&quot;font-size: 9px;&quot;&gt;Persediaan" style="swimlane;html=1;startSize=30;horizontal=0;fontSize=9;" parent="2b4e8129b02d487f-1" vertex="1">
          <mxGeometry y="160" width="770" height="70" as="geometry" />
        </mxCell>
        <mxCell id="2b4e8129b02d487f-12" value="Pencarian / Pembelian bahan baku" style="rounded=1;whiteSpace=wrap;html=1;shadow=0;labelBackgroundColor=none;strokeWidth=1;fontFamily=Verdana;fontSize=7;align=center;" parent="2b4e8129b02d487f-4" vertex="1">
          <mxGeometry x="50" y="15.5" width="70" height="37" as="geometry" />
        </mxCell>
        <mxCell id="EXiJSsDwTDuwI2L_ceVk-50" value="Melakukan pengiriman kepada pelanggan" style="rounded=1;whiteSpace=wrap;html=1;shadow=0;labelBackgroundColor=none;strokeWidth=1;fontFamily=Verdana;fontSize=7;align=center;" parent="2b4e8129b02d487f-4" vertex="1">
          <mxGeometry x="560" y="16.5" width="90" height="37" as="geometry" />
        </mxCell>
        <mxCell id="EXiJSsDwTDuwI2L_ceVk-8" value="Departemen&lt;br style=&quot;border-color: var(--border-color);&quot;&gt;Keuangan" style="swimlane;html=1;startSize=30;horizontal=0;fontSize=9;" parent="2b4e8129b02d487f-1" vertex="1">
          <mxGeometry y="230" width="770" height="70" as="geometry" />
        </mxCell>
        <mxCell id="EXiJSsDwTDuwI2L_ceVk-22" value="Laporan Keuangan pembelian bahan baku" style="rounded=1;whiteSpace=wrap;html=1;shadow=0;labelBackgroundColor=none;strokeWidth=1;fontFamily=Verdana;fontSize=7;align=center;" parent="EXiJSsDwTDuwI2L_ceVk-8" vertex="1">
          <mxGeometry x="50" y="16.5" width="70" height="37" as="geometry" />
        </mxCell>
        <mxCell id="EXiJSsDwTDuwI2L_ceVk-60" value="Melaporkan keuangan hasil penjualan" style="rounded=1;whiteSpace=wrap;html=1;shadow=0;labelBackgroundColor=none;strokeWidth=1;fontFamily=Verdana;fontSize=7;align=center;" parent="EXiJSsDwTDuwI2L_ceVk-8" vertex="1">
          <mxGeometry x="680" y="16.5" width="70" height="37" as="geometry" />
        </mxCell>
        <mxCell id="EXiJSsDwTDuwI2L_ceVk-9" value="Pegawai" style="swimlane;html=1;startSize=30;horizontal=0;fontSize=9;" parent="2b4e8129b02d487f-1" vertex="1">
          <mxGeometry y="300" width="770" height="70" as="geometry" />
        </mxCell>
        <mxCell id="EXiJSsDwTDuwI2L_ceVk-28" value="Menyiapkan Stok produk untuk di jual" style="rounded=1;whiteSpace=wrap;html=1;shadow=0;labelBackgroundColor=none;strokeWidth=1;fontFamily=Verdana;fontSize=7;align=center;" parent="EXiJSsDwTDuwI2L_ceVk-9" vertex="1">
          <mxGeometry x="460" y="18" width="90" height="37" as="geometry" />
        </mxCell>
        <mxCell id="EXiJSsDwTDuwI2L_ceVk-15" value="if Bahan&lt;br style=&quot;font-size: 6px;&quot;&gt;Baku tersedia" style="edgeStyle=orthogonalEdgeStyle;rounded=0;html=1;labelBackgroundColor=none;startArrow=none;startFill=0;startSize=5;endArrow=classicThin;endFill=1;endSize=5;jettySize=auto;orthogonalLoop=1;strokeWidth=1;fontFamily=Verdana;fontSize=6;" parent="2b4e8129b02d487f-1" source="2b4e8129b02d487f-6" target="EXiJSsDwTDuwI2L_ceVk-14" edge="1">
          <mxGeometry x="-0.4781" y="10" relative="1" as="geometry">
            <mxPoint as="offset" />
            <mxPoint x="147" y="59.969696969697" as="sourcePoint" />
            <mxPoint x="205.030303030303" y="120" as="targetPoint" />
          </mxGeometry>
        </mxCell>
        <mxCell id="2b4e8129b02d487f-24" value="if Bahan Baku&lt;br style=&quot;font-size: 6px;&quot;&gt;tidak tersedia" style="edgeStyle=orthogonalEdgeStyle;rounded=0;html=1;labelBackgroundColor=none;startArrow=none;startFill=0;startSize=5;endArrow=classicThin;endFill=1;endSize=5;jettySize=auto;orthogonalLoop=1;strokeWidth=1;fontFamily=Verdana;fontSize=6;verticalAlign=middle;horizontal=0;" parent="2b4e8129b02d487f-1" source="2b4e8129b02d487f-6" target="2b4e8129b02d487f-12" edge="1">
          <mxGeometry x="0.0362" y="-19" relative="1" as="geometry">
            <mxPoint as="offset" />
          </mxGeometry>
        </mxCell>
        <mxCell id="EXiJSsDwTDuwI2L_ceVk-20" value="" style="edgeStyle=orthogonalEdgeStyle;rounded=0;html=1;labelBackgroundColor=none;startArrow=none;startFill=0;startSize=5;endArrow=classicThin;endFill=1;endSize=5;jettySize=auto;orthogonalLoop=1;strokeWidth=1;fontFamily=Verdana;fontSize=6;verticalAlign=middle;horizontal=0;" parent="2b4e8129b02d487f-1" source="EXiJSsDwTDuwI2L_ceVk-14" target="EXiJSsDwTDuwI2L_ceVk-18" edge="1">
          <mxGeometry x="0.0362" y="-19" relative="1" as="geometry">
            <mxPoint x="320" y="114.5" as="sourcePoint" />
            <mxPoint x="320" y="253.5" as="targetPoint" />
            <mxPoint as="offset" />
          </mxGeometry>
        </mxCell>
        <mxCell id="EXiJSsDwTDuwI2L_ceVk-21" value="" style="edgeStyle=orthogonalEdgeStyle;rounded=0;html=1;labelBackgroundColor=none;startArrow=none;startFill=0;startSize=5;endArrow=classicThin;endFill=1;endSize=5;jettySize=auto;orthogonalLoop=1;strokeWidth=1;fontFamily=Verdana;fontSize=6;verticalAlign=middle;horizontal=0;" parent="2b4e8129b02d487f-1" source="2b4e8129b02d487f-12" target="EXiJSsDwTDuwI2L_ceVk-14" edge="1">
          <mxGeometry x="0.0362" y="-19" relative="1" as="geometry">
            <mxPoint x="120" y="232" as="sourcePoint" />
            <mxPoint x="169" y="180" as="targetPoint" />
            <mxPoint as="offset" />
          </mxGeometry>
        </mxCell>
        <mxCell id="EXiJSsDwTDuwI2L_ceVk-23" value="" style="edgeStyle=orthogonalEdgeStyle;rounded=0;html=1;labelBackgroundColor=none;startArrow=none;startFill=0;startSize=5;endArrow=classicThin;endFill=1;endSize=5;jettySize=auto;orthogonalLoop=1;strokeWidth=1;fontFamily=Verdana;fontSize=6;verticalAlign=middle;horizontal=0;" parent="2b4e8129b02d487f-1" source="2b4e8129b02d487f-12" target="EXiJSsDwTDuwI2L_ceVk-22" edge="1">
          <mxGeometry relative="1" as="geometry">
            <mxPoint x="86.00000000000011" y="253.5" as="sourcePoint" />
            <mxPoint x="141" y="319" as="targetPoint" />
          </mxGeometry>
        </mxCell>
        <mxCell id="EXiJSsDwTDuwI2L_ceVk-10" value="Admin" style="swimlane;html=1;startSize=30;horizontal=0;fontSize=9;" parent="2b4e8129b02d487f-1" vertex="1">
          <mxGeometry y="370" width="770" height="70" as="geometry" />
        </mxCell>
        <mxCell id="EXiJSsDwTDuwI2L_ceVk-32" value="Menerima pesanan Pelanggan" style="rounded=1;whiteSpace=wrap;html=1;shadow=0;labelBackgroundColor=none;strokeWidth=1;fontFamily=Verdana;fontSize=7;align=center;" parent="EXiJSsDwTDuwI2L_ceVk-10" vertex="1">
          <mxGeometry x="460" y="16.5" width="90" height="37" as="geometry" />
        </mxCell>
        <mxCell id="EXiJSsDwTDuwI2L_ceVk-47" value="Memberikan Formulir pesanan dan pembayaran" style="rounded=1;whiteSpace=wrap;html=1;shadow=0;labelBackgroundColor=none;strokeWidth=1;fontFamily=Verdana;fontSize=7;align=center;" parent="EXiJSsDwTDuwI2L_ceVk-10" vertex="1">
          <mxGeometry x="265" y="16.5" width="80" height="37" as="geometry" />
        </mxCell>
        <mxCell id="EXiJSsDwTDuwI2L_ceVk-36" value="Customer" style="swimlane;html=1;startSize=30;horizontal=0;fontSize=9;" parent="2b4e8129b02d487f-1" vertex="1">
          <mxGeometry y="440" width="770" height="70" as="geometry" />
        </mxCell>
        <mxCell id="EXiJSsDwTDuwI2L_ceVk-37" value="Mengunjungi&lt;br&gt;Website / Aplikasi ZPA SmartHome" style="rounded=1;whiteSpace=wrap;html=1;shadow=0;labelBackgroundColor=none;strokeWidth=1;fontFamily=Verdana;fontSize=7;align=center;" parent="EXiJSsDwTDuwI2L_ceVk-36" vertex="1">
          <mxGeometry x="50" y="16.5" width="70" height="37" as="geometry" />
        </mxCell>
        <mxCell id="EXiJSsDwTDuwI2L_ceVk-38" value="Memilih/ mencari produk SmartHome yang dibutuhkan / diinginkan" style="rounded=1;whiteSpace=wrap;html=1;shadow=0;labelBackgroundColor=none;strokeWidth=1;fontFamily=Verdana;fontSize=7;align=center;" parent="EXiJSsDwTDuwI2L_ceVk-36" vertex="1">
          <mxGeometry x="140" y="16.5" width="96" height="37" as="geometry" />
        </mxCell>
        <mxCell id="EXiJSsDwTDuwI2L_ceVk-39" value="" style="edgeStyle=orthogonalEdgeStyle;rounded=0;html=1;labelBackgroundColor=none;startArrow=none;startFill=0;startSize=5;endArrow=classicThin;endFill=1;endSize=5;jettySize=auto;orthogonalLoop=1;strokeWidth=1;fontFamily=Verdana;fontSize=6;verticalAlign=middle;horizontal=0;" parent="EXiJSsDwTDuwI2L_ceVk-36" source="EXiJSsDwTDuwI2L_ceVk-37" target="EXiJSsDwTDuwI2L_ceVk-38" edge="1">
          <mxGeometry relative="1" as="geometry">
            <mxPoint x="96" y="-147" as="sourcePoint" />
            <mxPoint x="143" y="-25" as="targetPoint" />
          </mxGeometry>
        </mxCell>
        <mxCell id="EXiJSsDwTDuwI2L_ceVk-40" value="Memesan produk perangkat SmartHome secara Manual" style="rounded=1;whiteSpace=wrap;html=1;shadow=0;labelBackgroundColor=none;strokeWidth=1;fontFamily=Verdana;fontSize=7;align=center;" parent="EXiJSsDwTDuwI2L_ceVk-36" vertex="1">
          <mxGeometry x="260" y="16.5" width="90" height="37" as="geometry" />
        </mxCell>
        <mxCell id="EXiJSsDwTDuwI2L_ceVk-41" value="" style="edgeStyle=orthogonalEdgeStyle;rounded=0;html=1;labelBackgroundColor=none;startArrow=none;startFill=0;startSize=5;endArrow=classicThin;endFill=1;endSize=5;jettySize=auto;orthogonalLoop=1;strokeWidth=1;fontFamily=Verdana;fontSize=6;verticalAlign=middle;horizontal=0;" parent="EXiJSsDwTDuwI2L_ceVk-36" source="EXiJSsDwTDuwI2L_ceVk-38" target="EXiJSsDwTDuwI2L_ceVk-40" edge="1">
          <mxGeometry relative="1" as="geometry">
            <mxPoint x="130" y="45" as="sourcePoint" />
            <mxPoint x="154" y="45" as="targetPoint" />
          </mxGeometry>
        </mxCell>
        <mxCell id="EXiJSsDwTDuwI2L_ceVk-54" value="Menerima produk yang dipesan" style="rounded=1;whiteSpace=wrap;html=1;shadow=0;labelBackgroundColor=none;strokeWidth=1;fontFamily=Verdana;fontSize=7;align=center;" parent="EXiJSsDwTDuwI2L_ceVk-36" vertex="1">
          <mxGeometry x="565" y="16.5" width="80" height="37" as="geometry" />
        </mxCell>
        <mxCell id="A2KUPN6uwb9VX7VzME6s-3" value="Mengisi formulir pembelian dan bukti pembayaran" style="rounded=1;whiteSpace=wrap;html=1;shadow=0;labelBackgroundColor=none;strokeWidth=1;fontFamily=Verdana;fontSize=7;align=center;" vertex="1" parent="EXiJSsDwTDuwI2L_ceVk-36">
          <mxGeometry x="370" y="16.5" width="90" height="37" as="geometry" />
        </mxCell>
        <mxCell id="EXiJSsDwTDuwI2L_ceVk-29" value="" style="edgeStyle=orthogonalEdgeStyle;rounded=0;html=1;labelBackgroundColor=none;startArrow=none;startFill=0;startSize=5;endArrow=classicThin;endFill=1;endSize=5;jettySize=auto;orthogonalLoop=1;strokeWidth=1;fontFamily=Verdana;fontSize=6;verticalAlign=middle;horizontal=0;" parent="2b4e8129b02d487f-1" source="EXiJSsDwTDuwI2L_ceVk-18" target="EXiJSsDwTDuwI2L_ceVk-28" edge="1">
          <mxGeometry x="0.0362" y="-19" relative="1" as="geometry">
            <mxPoint x="240" y="135" as="sourcePoint" />
            <mxPoint x="290" y="83" as="targetPoint" />
            <mxPoint as="offset" />
            <Array as="points">
              <mxPoint x="420" y="55" />
              <mxPoint x="420" y="337" />
            </Array>
          </mxGeometry>
        </mxCell>
        <mxCell id="EXiJSsDwTDuwI2L_ceVk-44" style="edgeStyle=orthogonalEdgeStyle;rounded=0;orthogonalLoop=1;jettySize=auto;html=1;" parent="2b4e8129b02d487f-1" source="EXiJSsDwTDuwI2L_ceVk-32" target="EXiJSsDwTDuwI2L_ceVk-28" edge="1">
          <mxGeometry relative="1" as="geometry" />
        </mxCell>
        <mxCell id="EXiJSsDwTDuwI2L_ceVk-43" value="" style="edgeStyle=orthogonalEdgeStyle;rounded=0;html=1;labelBackgroundColor=none;startArrow=none;startFill=0;startSize=5;endArrow=classicThin;endFill=1;endSize=5;jettySize=auto;orthogonalLoop=1;strokeWidth=1;fontFamily=Verdana;fontSize=6;verticalAlign=middle;horizontal=0;" parent="2b4e8129b02d487f-1" source="EXiJSsDwTDuwI2L_ceVk-32" target="EXiJSsDwTDuwI2L_ceVk-28" edge="1">
          <mxGeometry relative="1" as="geometry">
            <mxPoint x="400" y="400" as="sourcePoint" />
            <mxPoint x="415" y="433" as="targetPoint" />
          </mxGeometry>
        </mxCell>
        <mxCell id="EXiJSsDwTDuwI2L_ceVk-46" value="" style="edgeStyle=orthogonalEdgeStyle;rounded=0;html=1;labelBackgroundColor=none;startArrow=none;startFill=0;startSize=5;endArrow=classicThin;endFill=1;endSize=5;jettySize=auto;orthogonalLoop=1;strokeWidth=1;fontFamily=Verdana;fontSize=6;verticalAlign=middle;horizontal=0;" parent="2b4e8129b02d487f-1" source="EXiJSsDwTDuwI2L_ceVk-28" target="EXiJSsDwTDuwI2L_ceVk-45" edge="1">
          <mxGeometry relative="1" as="geometry">
            <mxPoint x="415" y="396" as="sourcePoint" />
            <mxPoint x="415" y="365" as="targetPoint" />
          </mxGeometry>
        </mxCell>
        <mxCell id="EXiJSsDwTDuwI2L_ceVk-52" value="" style="edgeStyle=orthogonalEdgeStyle;rounded=0;html=1;labelBackgroundColor=none;startArrow=none;startFill=0;startSize=5;endArrow=classicThin;endFill=1;endSize=5;jettySize=auto;orthogonalLoop=1;strokeWidth=1;fontFamily=Verdana;fontSize=6;verticalAlign=middle;horizontal=0;" parent="2b4e8129b02d487f-1" source="EXiJSsDwTDuwI2L_ceVk-45" target="EXiJSsDwTDuwI2L_ceVk-50" edge="1">
          <mxGeometry relative="1" as="geometry">
            <mxPoint x="515" y="328" as="sourcePoint" />
            <mxPoint x="515" y="83" as="targetPoint" />
          </mxGeometry>
        </mxCell>
        <mxCell id="EXiJSsDwTDuwI2L_ceVk-55" value="" style="edgeStyle=orthogonalEdgeStyle;rounded=0;html=1;labelBackgroundColor=none;startArrow=none;startFill=0;startSize=5;endArrow=classicThin;endFill=1;endSize=5;jettySize=auto;orthogonalLoop=1;strokeWidth=1;fontFamily=Verdana;fontSize=6;verticalAlign=middle;horizontal=0;" parent="2b4e8129b02d487f-1" source="EXiJSsDwTDuwI2L_ceVk-50" target="EXiJSsDwTDuwI2L_ceVk-54" edge="1">
          <mxGeometry relative="1" as="geometry">
            <mxPoint x="515" y="328" as="sourcePoint" />
            <mxPoint x="515" y="83" as="targetPoint" />
          </mxGeometry>
        </mxCell>
        <mxCell id="EXiJSsDwTDuwI2L_ceVk-33" value="" style="edgeStyle=orthogonalEdgeStyle;rounded=0;html=1;labelBackgroundColor=none;startArrow=none;startFill=0;startSize=5;endArrow=classicThin;endFill=1;endSize=5;jettySize=auto;orthogonalLoop=1;strokeWidth=1;fontFamily=Verdana;fontSize=6;verticalAlign=middle;horizontal=0;" parent="2b4e8129b02d487f-1" source="EXiJSsDwTDuwI2L_ceVk-40" target="EXiJSsDwTDuwI2L_ceVk-47" edge="1">
          <mxGeometry relative="1" as="geometry">
            <mxPoint x="305.03030303030323" y="386.5" as="sourcePoint" />
            <mxPoint x="95" y="327" as="targetPoint" />
          </mxGeometry>
        </mxCell>
        <mxCell id="A2KUPN6uwb9VX7VzME6s-2" value="" style="edgeStyle=orthogonalEdgeStyle;rounded=0;html=1;labelBackgroundColor=none;startArrow=none;startFill=0;startSize=5;endArrow=classicThin;endFill=1;endSize=5;jettySize=auto;orthogonalLoop=1;strokeWidth=1;fontFamily=Verdana;fontSize=6;verticalAlign=middle;horizontal=0;entryX=0.5;entryY=0;entryDx=0;entryDy=0;" edge="1" parent="2b4e8129b02d487f-1" source="EXiJSsDwTDuwI2L_ceVk-47" target="A2KUPN6uwb9VX7VzME6s-3">
          <mxGeometry relative="1" as="geometry">
            <mxPoint x="310" y="434" as="sourcePoint" />
            <mxPoint x="515" y="434" as="targetPoint" />
          </mxGeometry>
        </mxCell>
        <mxCell id="A2KUPN6uwb9VX7VzME6s-4" value="" style="edgeStyle=orthogonalEdgeStyle;rounded=0;html=1;labelBackgroundColor=none;startArrow=none;startFill=0;startSize=5;endArrow=classicThin;endFill=1;endSize=5;jettySize=auto;orthogonalLoop=1;strokeWidth=1;fontFamily=Verdana;fontSize=6;verticalAlign=middle;horizontal=0;exitX=1;exitY=0.5;exitDx=0;exitDy=0;" edge="1" parent="2b4e8129b02d487f-1" source="A2KUPN6uwb9VX7VzME6s-3" target="EXiJSsDwTDuwI2L_ceVk-32">
          <mxGeometry relative="1" as="geometry">
            <mxPoint x="355" y="415" as="sourcePoint" />
            <mxPoint x="425" y="467" as="targetPoint" />
          </mxGeometry>
        </mxCell>
        <mxCell id="A2KUPN6uwb9VX7VzME6s-5" value="" style="edgeStyle=orthogonalEdgeStyle;rounded=0;html=1;labelBackgroundColor=none;startArrow=none;startFill=0;startSize=5;endArrow=classicThin;endFill=1;endSize=5;jettySize=auto;orthogonalLoop=1;strokeWidth=1;fontFamily=Verdana;fontSize=6;verticalAlign=middle;horizontal=0;entryX=0.5;entryY=1;entryDx=0;entryDy=0;exitX=1;exitY=0.5;exitDx=0;exitDy=0;" edge="1" parent="2b4e8129b02d487f-1" source="EXiJSsDwTDuwI2L_ceVk-32" target="EXiJSsDwTDuwI2L_ceVk-60">
          <mxGeometry relative="1" as="geometry">
            <mxPoint x="510" y="370" as="sourcePoint" />
            <mxPoint x="580" y="422" as="targetPoint" />
          </mxGeometry>
        </mxCell>
      </root>
    </mxGraphModel>
  </diagram>
</mxfile>
